# xmcd
#
# Track frame offsets:
#	150
#	13970
#	32305
#	48075
#	64604
#	80841
#	92655
#	108570
#	125525
#	140589
#	156529
#	171242
#	186069
#	202564
#	217189
#	233128
#	246999
#	259202
#	274409
#	285597
#	302153
#	315083
#
# Disc length: 4398 seconds
#
# Revision: 0
# Processed by: cddbd v1.5.2PL0 Copyright (c) Steve Scherf et al.
# Submitted via: EasyCDDAExtractor 16.0.9.1
#
DISCID=3d112c16
DTITLE=Hott Country Volume 232 Canada
DYEAR=2015
DGENRE=country
TTITLE0=Blake Shelton\n - Gonna\n
TTITLE1=Luke Bryan\n - Strip It Down\n
TTITLE2=Tim McGraw\n - Top Of The World\n
TTITLE3=Emerson Drive\n - Til The Summer's Gone\n
TTITLE4=Kacey Musgraves\n - Dime Store Cowgirl\n
TTITLE5=Canaan Smith\n - Canaan Smith	Hole In A Bottle\n
TTITLE6=Cassadee Pope\n - I Am Invincible\n
TTITLE7=Big and Rich\n - Run Away With You\n
TTITLE8=Ronnie Dunn\n - Ain't No Trucks In Texas\n
TTITLE9=Steven Tyler\n - Love Is Your Name\n
TTITLE10=Mo Pitney\n - Country\n
TTITLE11=Tim Hicks\n - Young Alive And In Love\n
TTITLE12=Cam\n - Burning House\n
TTITLE13=Bucko and Toad\n - Any Excuse\n
TTITLE14=Jason Blaine\n - Travellin' Light\n
TTITLE15=Madeline Merlo\n - Honey Jack\n
TTITLE16=Samara Yung ft. Codie Prevost\n - You Brought The Party\n
TTITLE17=Lucy Angel\n - Crazy Too\n
TTITLE18=Waterloo Revival\n - Bad For You\n
TTITLE19=Toby Keith\n - 35 Mph Town\n
TTITLE20=James Otto\n - Somewhere Tonight\n
TTITLE21=Cold Creek Country\n - Our Town\n
EXTD=
EXTT0=
EXTT1=
EXTT2=
EXTT3=
EXTT4=
EXTT5=
EXTT6=
EXTT7=
EXTT8=
EXTT9=
EXTT10=
EXTT11=
EXTT12=
EXTT13=
EXTT14=
EXTT15=
EXTT16=
EXTT17=
EXTT18=
EXTT19=
EXTT20=
EXTT21=
PLAYORDER=
